<svg xmlns="http://www.w3.org/2000/svg" viewBox="0 0 64 32"><rect width="64" height="32" rx="4" fill="#f5c518"/><path d="M8 7h4.5v18H8V7zm8.5 0h5.2l2.6 10.5L27 7h5v18h-3.8V12.3L25.1 25h-2.8l-3-12.7V25H15.5V7zm16 0H40c1.8 0 3.2.5 4.2 1.5s1.5 2.5 1.5 4.5v5c0 2-.5 3.5-1.5 4.5s-2.4 1.5-4.2 1.5h-7.5V7zm4.5 3.5v11c1.8 0 2.7-1 2.7-3v-5c0-2-.9-3-2.7-3zM48 7h4.8c2 0 3.4.4 4.3 1.2.9.8 1.4 2 1.4 3.7 0 1.3-.3 2.3-.8 3-.5.7-1.3 1.1-2.3 1.3 1.1.1 1.9.6 2.4 1.3.5.8.7 1.8.7 3.2V23c0 .7.1 1.3.3 1.8h-4.7c-.2-.5-.3-1.3-.3-2.3v-2.3c0-1-.2-1.7-.5-2-.3-.4-.9-.5-1.7-.5H52.5v7H48V7zm4.5 3.2v4.5h1.3c.7 0 1.2-.2 1.5-.6.3-.4.5-1 .5-1.7 0-.7-.2-1.3-.5-1.6-.3-.4-.8-.6-1.5-.6h-1.3z" fill="#000"/></svg>
