<svg xmlns="http://www.w3.org/2000/svg" viewBox="0 0 500 500"><circle cx="129" cy="250" r="120" fill="#00E054"/><circle cx="250" cy="250" r="120" fill="#40BCF4"/><circle cx="371" cy="250" r="120" fill="#FF8000"/><path d="M189.5 152.2c22.6 18.4 39.2 44.2 45.5 73.8-6.3 29.6-22.9 55.4-45.5 73.8C167 281.4 150.4 255.6 144 226c6.4-29.6 23-55.4 45.5-73.8z" fill="#84CF25"/><path d="M310.5 152.2c-22.6 18.4-39.2 44.2-45.5 73.8 6.3 29.6 22.9 55.4 45.5 73.8 22.6-18.4 39.2-44.2 45.5-73.8-6.3-29.6-22.9-55.4-45.5-73.8z" fill="#A4D9F5"/><path d="M235 226c3.1-14.8 9.2-28.5 17.5-40.4-8.3-11.9-14.4-25.6-17.5-40.4-8.3 11.9-14.4 25.6-17.5 40.4 3.1 14.8 9.2 28.5 17.5 40.4z" fill="#7BC8E2"/></svg>
