<svg xmlns="http://www.w3.org/2000/svg" viewBox="0 0 24 24"><path d="M12.5 2c-.7 0-1.2.3-1.4.8L10 5.5 7 4.3c-.4-.2-.8 0-.9.4L5.5 7l-2.8.8c-.4.1-.6.5-.5.9l.8 2.8-1.8 2.2c-.3.3-.2.8.1 1l2.3 1.7.1 3c0 .4.3.7.7.8l2.9.3 1.5 2.5c.2.4.6.5 1 .3l2.6-1.3 2.6 1.3c.4.2.8 0 1-.3l1.5-2.5 2.9-.3c.4 0 .7-.4.7-.8l.1-3 2.3-1.7c.3-.3.4-.7.1-1L21.5 11l.8-2.8c.1-.4-.1-.8-.5-.9L19 7.5l-.6-2.8c-.1-.4-.5-.6-.9-.4L14.5 5.5 13.4 2.8c-.2-.5-.6-.8-1-.8z" fill="#FA320A"/><path d="M12.5 7c.4 0 .7.2.8.5l.8 2.2 2 .6c.3.1.5.4.4.7l-.5 2 1 1.8c.2.3.1.6-.2.8l-1.7 1v2.2c0 .3-.3.6-.6.6l-2-.3-1.5 1.5c-.2.2-.6.2-.8 0L9 19.3l-2 .3c-.3 0-.6-.2-.6-.6v-2.2l-1.7-1c-.3-.2-.3-.5-.2-.8l1-1.8-.5-2c-.1-.3.1-.6.4-.7l2-.6.8-2.2c.1-.3.4-.5.8-.5h3z" fill="#FFF"/><circle cx="12" cy="14" r="2.5" fill="#FA320A"/></svg>
